<svg xmlns="http://www.w3.org/2000/svg" viewBox="0 0 1024 1024"><path d="M492.1 377c-16.7 2.3-30.2 9.1-42.7 21.5-10.2 10.1-15.6 18.7-20.1 32-2.5 7.3-2.7 9.4-2.7 23 0 13.5.3 15.8 2.6 22.7 3.8 11.4 9.3 20.5 16.8 27.9 14.3 14.1 34 19.4 47.6 12.8 6.6-3.1 9.1-7.2 12-19 3.2-12.9 7.2-20.7 14.4-28 8.3-8.4 18.2-13 32-14.9 10.2-1.4 12.8-2.6 15.1-7.1 2.3-4.7 2.5-14.9.4-22.9-4.4-16.8-17.9-33.2-33.5-40.8-4.7-2.3-11-4.8-14-5.6-7.6-1.9-20.2-2.6-27.9-1.6m69.3 95c-19.3 5-36.1 19-40.4 33.7-2.1 6.9-.3 11 8.1 18.5 14.3 12.6 19.4 23.4 18.7 38.9-.4 8.3-.8 9.6-5.1 18.2-2.6 5-4.7 10.5-4.7 12 0 9.3 12.1 18.6 30 23.3 7.8 2.1 23.2 2.3 31 .5 6.4-1.6 18.1-6.7 23.6-10.5 15.2-10.3 26.9-28.4 31.1-48 1.8-8.5 1.3-24-1.2-33.1-7-26-28-46.9-54-53.5-10.3-2.6-27.1-2.7-37.1 0"/><path d="M411.5 505.9c-13.1 3.4-27.8 16.8-35.5 32.5-4.4 9-7 20.4-7 30.8 0 32 20.3 59.8 51.2 70.3 10.7 3.7 30.2 4.6 41.2 2.1 24.6-5.8 45.5-22.9 56-45.8 9.9-21.5 8.5-44.6-3.6-58.3-6.6-7.6-14.4-8.8-23-3.4-14.8 9-30.6 9.2-44.3.5-6.4-4.2-11.2-9.5-16.4-18.5-5.3-9-11-12.1-18.6-10.2"/></svg>